<svg xmlns="http://www.w3.org/2000/svg" viewBox="0 0 1200 320" preserveAspectRatio="xMidYMax slice">
  <defs>
    <!-- grain so the cut-outs read as screen-printed paper -->
    <filter id="rough" x="-5%" y="-5%" width="110%" height="110%">
      <feTurbulence type="fractalNoise" baseFrequency="0.9" numOctaves="2" result="n"/>
      <feColorMatrix in="n" type="matrix"
        values="0 0 0 0 0  0 0 0 0 0  0 0 0 0 0  0 0 0 0.4 0"/>
      <feComposite operator="in" in2="SourceGraphic"/>
      <feBlend in="SourceGraphic" mode="multiply"/>
    </filter>
  </defs>

  <g fill="#0a0a0a">
    <!-- ground line -->
    <rect x="0" y="296" width="1200" height="40"/>

    <!-- ===== left tree cluster (leafy, round) ===== -->
    <circle cx="70" cy="250" r="62"/>
    <circle cx="120" cy="225" r="70"/>
    <circle cx="175" cy="255" r="58"/>
    <circle cx="35"  cy="270" r="48"/>
    <rect x="105" y="270" width="14" height="60"/>

    <!-- ===== A-frame house ===== -->
    <polygon points="250,300 320,196 390,300"/>
    <rect x="276" y="262" width="20" height="38"/>      <!-- door -->
    <polygon points="320,210 305,232 335,232"/>          <!-- gable detail -->

    <!-- ===== church with steeple + cross ===== -->
    <rect x="430" y="214" width="92" height="86"/>        <!-- nave -->
    <polygon points="426,214 476,150 526,214"/>          <!-- roof -->
    <rect x="466" y="120" width="20" height="40"/>        <!-- belfry base -->
    <polygon points="460,124 476,86 492,124"/>           <!-- spire -->
    <rect x="473" y="64" width="6" height="22"/>          <!-- cross vertical -->
    <rect x="466" y="70" width="20" height="6"/>          <!-- cross horizontal -->
    <rect x="470" y="252" width="16" height="48"/>        <!-- door -->

    <!-- ===== center A-frames (varied heights) ===== -->
    <polygon points="560,300 620,170 680,300"/>
    <polygon points="650,300 700,210 750,300"/>

    <!-- ===== second church / chapel ===== -->
    <rect x="788" y="226" width="84" height="74"/>
    <polygon points="784,226 830,162 876,226"/>
    <rect x="822" y="132" width="16" height="34"/>
    <polygon points="816,136 830,104 844,136"/>
    <rect x="827" y="84" width="5" height="20"/>
    <rect x="821" y="90" width="17" height="5"/>

    <!-- ===== right A-frame ===== -->
    <polygon points="900,300 968,188 1036,300"/>
    <rect x="958" y="262" width="20" height="38"/>

    <!-- ===== right tree cluster ===== -->
    <circle cx="1110" cy="248" r="66"/>
    <circle cx="1160" cy="228" r="72"/>
    <circle cx="1060" cy="262" r="52"/>
    <rect x="1146" y="272" width="14" height="58"/>

    <!-- scattered pines for depth -->
    <polygon points="345,300 365,232 385,300"/>
    <polygon points="745,300 762,244 779,300"/>
    <polygon points="1045,300 1062,240 1079,300"/>
  </g>
</svg>
